# AST/ASF file generated using VICON BodyLanguage
# -----------------------------------------------
:version 1.10
:name VICON
:units
  mass 1.0
  length 0.45
  angle deg
:documentation
   .ast/.asf automatically generated from VICON data using
   VICON BodyBuilder and BodyLanguage model FoxedUp or BRILLIANT.MOD
:root
   order TX TY TZ RX RY RZ
   axis XYZ
   position 0 0 0  
   orientation 0 0 0 
:bonedata
  begin
     id 1 
     name lhipjoint
     direction 0.690799 -0.707083 0.151096 
     length 2.54797 
     axis 0 0 0  XYZ
  end
  begin
     id 2 
     name lfemur
     direction 0.34202 -0.939693 0  
     length 7.21646  
     axis 0 0 20  XYZ
    dof rx ry rz
    limits (-160.0 20.0)
           (-70.0 70.0)
           (-60.0 70.0)
  end
  begin
     id 3 
     name ltibia
     direction 0.34202 -0.939693 0   
     length 8.16759   
     axis 0 0 20   XYZ
    dof rx
    limits (-10.0 170.0)
  end
  begin
     id 4 
     name lfoot
     direction 0.0487203 -0.133858 0.989802   
     length 1.93375   
     axis -90 7.62852e-016 20   XYZ
    dof rx rz
    limits (-45.0 90.0)
           (-70.0 20.0)
  end
  begin
     id 5 
     name ltoes
     direction 1.53453e-011 -4.21783e-011 1   
     length 0.979747   
     axis -90 7.62852e-016 20   XYZ
    dof rx
    limits (-90.0 20.0)
  end
  begin
     id 6 
     name rhipjoint
     direction -0.694693 -0.703425 0.150315   
     length 2.56122  
     axis 0 0 0  XYZ 
  end
  begin
     id 7 
     name rfemur
     direction -0.34202 -0.939693 0   
     length 7.36786   
     axis 0 0 -20   XYZ
    dof rx ry rz
    limits (-160.0 20.0)
           (-70.0 70.0)
           (-70.0 60.0)
  end
  begin
     id 8 
     name rtibia
     direction -0.34202 -0.939693 0   
     length 8.07288   
     axis 0 0 -20   XYZ
    dof rx
    limits (-10.0 170.0)
 end
 begin
     id 9 
     name rfoot
     direction -0.0428397 -0.117701 0.992125   
     length 1.88295  
     axis -90 -7.62852e-016 -20   XYZ
    dof rx rz
    limits (-45.0 90.0)
           (-20.0 70.0)
  end
  begin
     id 10 
     name rtoes
     direction -1.53456e-011 -4.2187e-011 1   
     length 0.955578   
     axis -90 -7.62852e-016 -20   XYZ
    dof rx
    limits (-90.0 20.0)
  end
  begin
     id 11 
     name lowerback
     direction 0.0288145 0.999398 -0.0193241   
     length 1.92149   
     axis 0 0 0   XYZ
    dof rx ry rz
    limits (-20.0 45.0)
           (-30.0 30.0)
           (-30.0 30.0)
  end
  begin
     id 12 
     name upperback
     direction 0.0233784 0.998099 0.0570278   
     length 1.90435   
     axis 0 0 0   XYZ
    dof rx ry rz
    limits (-20.0 45.0)
           (-30.0 30.0)
           (-30.0 30.0)
  end
  begin
     id 13 
     name thorax
     direction 0.0096694 0.997833 0.0650817   
     length 1.9111   
     axis 0 0 0   XYZ
    dof rx ry rz
    limits (-20.0 45.0)
           (-30.0 30.0)
           (-30.0 30.0)
  end
  begin
     id 14 
     name lowerneck
     direction 0.00516803 0.999916 0.0118722   
     length 1.74664   
     axis 0 0 0   XYZ
    dof rx ry rz
    limits (-20.0 45.0)
           (-30.0 30.0)
           (-30.0 30.0)
  end
  begin
     id 15 
     name upperneck
     direction -0.0510851 0.996117 -0.071696   
     length 1.68498   
     axis 0 0 0   XYZ
    dof rx ry rz
    limits (-20.0 45.0)
           (-30.0 30.0)
           (-30.0 30.0)
  end
  begin
     id 16
     name head
     direction -0.019188 0.999436 -0.0275702  
     length 1.83483  
     axis 0 0 0   XYZ
    dof rx ry rz
    limits (-20.0 45.0)
           (-30.0 30.0)
           (-30.0 30.0)
  end
  begin
     id 17 
     name lclavicle
     direction 0.967006 0.248456 -0.0562957  
     length 3.39395  
     axis 0 0 0   XYZ
    dof ry rz
    limits (-20.0 10.0)
           (0.0 20.0)
  end
  begin
     id 18 
     name lhumerus
     direction 1 -4.48962e-011 -5.62711e-019   
     length 5.24318   
     axis 180 -30 -90   XYZ
    dof rx ry rz
    limits (-60.0 90.0)
           (-90.0 90.0)
           (-90.0 90.0)
  end
  begin
     id 19
     name lradius
     direction 1 -4.48966e-011 7.90625e-027   
     length 2.98999   
     axis 180 -30 -90   XYZ
    dof rx
    limits (-10.0 170.0)
  end
  begin
     id 20
     name lwrist
     direction 1 -4.48959e-011 1.61068e-026   
     length 1.49499   
     axis -9.31229e-015 90 90   XYZ
    dof ry
    limits (-180.0 0.0)
 end
  begin
     id 21 
     name lhand
     direction 1 -4.49017e-011 3.22136e-026   
     length 0.726745   
     axis -2.0555e-014 90 90   XYZ
    dof rx rz
    limits (-90.0 90.0)
           (-45.0 45.0)
  end
  begin
     id 22 
     name lfingers
     direction 1 -4.4898e-011 6.44272e-026   
     length 0.58592   
     axis -4.11101e-014 90 90   XYZ
    dof rx
    limits (0.0 90.0)
  end
  begin
     id 23
     name lthumb
     direction 0.707107 -6.34922e-011 0.707107   
     length 0.841268   
     axis -90 45 2.85299e-015   XYZ
    dof rx rz
    limits (-45.0 45.0)
           (-45.0 45.0)
  end
  begin
     id 24 
     name rclavicle
     direction -0.972232 0.230238 0.0419005   
     length 3.40416  
     axis 0 0 0   XYZ 
    dof ry rz
    limits (-10.0 20.0)
           (-20.0 0.0)
  end
  begin
     id 25 
     name rhumerus
     direction -1 -4.48976e-011 2.48487e-027  
     length 5.37045   
     axis 180 30 90   XYZ
    dof rx ry rz
    limits (-90.0 60.0)
           (-90.0 90.0)
           (-90.0 90.0)
  end
  begin
     id 26 
     name rradius
     direction -1 -4.48942e-011 7.87951e-027   
     length 2.92792   
     axis 180 30 90   XYZ
    dof rx
    limits (-10.0 170.0)
  end
  begin
     id 27 
     name rwrist
     direction -1 -4.48969e-011 1.61068e-026   
     length 1.46396   
     axis -9.31229e-015 -90 -90   XYZ
    dof ry
    limits (-180.0 0.0)
  end
  begin
     id 28
     name rhand
     direction -1 -4.49043e-011 3.22136e-026   
     length 0.784497   
     axis -2.0555e-014 -90 -90   XYZ
    dof rx rz
    limits (-90.0 90.0)
           (-45.0 45.0)
  end
  begin
     id 29
     name rfingers
     direction -1 -4.48823e-011 6.44272e-026   
     length 0.632482   
     axis -4.11101e-014 -90 -90   XYZ
    dof rx
    limits (0.0 90.0)
  end
  begin
     id 30
     name rthumb
     direction -0.707107 -6.34923e-011 0.707107   
     length 0.908121   
     axis -90 -45 -2.85299e-015   XYZ
    dof rx rz
    limits (-45.0 45.0)
           (-45.0 45.0)
  end
:hierarchy
  begin
    root lhipjoint rhipjoint lowerback
    lhipjoint lfemur
    lfemur ltibia
    ltibia lfoot
    lfoot ltoes
    rhipjoint rfemur
    rfemur rtibia
    rtibia rfoot
    rfoot rtoes
    lowerback upperback
    upperback thorax
    thorax lowerneck lclavicle rclavicle
    lowerneck upperneck
    upperneck head
    lclavicle lhumerus
    lhumerus lradius
    lradius lwrist
    lwrist lhand lthumb
    lhand lfingers
    rclavicle rhumerus
    rhumerus rradius
    rradius rwrist
    rwrist rhand rthumb
    rhand rfingers
  end

#!OML:ASF E:\Style6\Style6.ASF
:FULLY-SPECIFIED
:DEGREES
1660
root 0.592036 16.5371 1.3614 -15.3166 5.71536 10.9371
lowerback 6.37392 5.99126 10.3342
upperback 8.97899 8.02727 5.58676
thorax 6.5913 4.46278 0.224399
lowerneck 17.4079 7.78588 5.54517
upperneck 4.8862 11.659 -15.1429
head -0.131234 6.44851 -6.04079
rclavicle 2.04748e-014 -1.90833e-014
rhumerus -59.511 -57.2089 -23.203
rradius 36.475
rwrist 16.2543
rhand 3.47794 6.31584
rfingers 7.12502
rthumb 28.9172 -21.4621
lclavicle 2.04748e-014 -1.90833e-014
lhumerus -54.8454 3.13198 66.4656
lradius 64.5097
lwrist -4.98257
lhand 9.87476 16.2484
lfingers 7.12502
lthumb 35.0075 42.8027
rfemur -3.72114 -9.03161 0.182446
rtibia 56.489
rfoot -26.965 -5.33344
rtoes -19.9981
lfemur 2.1289 8.10954 -27.4235
ltibia 44.6032
lfoot -23.0943 0.490115
ltoes -23.2985
1661
root 0.594138 16.5342 1.36018 -15.3704 5.8761 10.8197
lowerback 6.36217 5.9508 10.3782
upperback 8.98621 7.97455 5.55313
thorax 6.61385 4.44179 0.167936
lowerneck 17.4118 7.54963 5.36018
upperneck 4.84383 11.2945 -15.0638
head -0.199134 6.26164 -5.98334
rclavicle -5.62561e-014 -1.59028e-014
rhumerus -59.5443 -57.0771 -23.3224
rradius 36.1981
rwrist 16.8131
rhand 3.66798 6.31797
rfingers 7.12502
rthumb 29.0987 -21.4288
lclavicle -5.62561e-014 -1.59028e-014
lhumerus -55.0435 3.11447 66.5068
lradius 64.3551
lwrist -5.49192
lhand 10.4494 16.5072
lfingers 7.12502
lthumb 35.5525 42.9324
rfemur -3.59981 -8.9959 0.351343
rtibia 56.4754
rfoot -26.925 -5.97192
rtoes -21.6757
lfemur 2.12521 8.01975 -27.3276
ltibia 44.7001
lfoot -23.1358 0.731796
ltoes -24.3262
1662
root 0.594899 16.534 1.36038 -15.4494 6.03317 10.6284
lowerback 6.35483 5.92649 10.5129
upperback 8.98024 7.94647 5.52729
thorax 6.63546 4.43769 0.0719548
lowerneck 17.484 7.23944 5.30654
upperneck 4.82327 10.8607 -15.0488
head -0.268299 6.04619 -5.96756
rclavicle 2.40529e-014 -2.54444e-014
rhumerus -59.6016 -56.8778 -23.5103
rradius 35.9697
rwrist 17.337
rhand 3.52959 6.33696
rfingers 7.12502
rthumb 28.9665 -21.4326
lclavicle 2.40529e-014 -2.54444e-014
lhumerus -55.1939 3.00825 66.5451
lradius 64.1832
lwrist -6.27668
lhand 11.3205 16.7471
lfingers 7.12502
lthumb 36.3777 42.9699
rfemur -3.44245 -8.92614 0.62261
rtibia 56.4476
rfoot -26.9793 -6.41442
rtoes -22.3823
lfemur 2.14693 7.91856 -27.1356
ltibia 44.7977
lfoot -23.2167 0.798816
ltoes -24.5484
1663
root 0.595712 16.5327 1.35967 -15.4951 6.18225 10.4403
lowerback 6.28481 5.89533 10.6264
upperback 8.99441 7.89764 5.50984
thorax 6.70821 4.42341 0.00523455
lowerneck 17.5039 6.91854 5.23867
upperneck 4.8196 10.4117 -15.0589
head -0.325765 5.82117 -5.95267
rclavicle -6.2816e-014 2.8625e-014
rhumerus -59.5758 -56.7629 -23.705
rradius 35.7719
rwrist 17.7412
rhand 3.44905 6.1425
rfingers 7.12502
rthumb 28.8896 -21.6402
lclavicle -6.2816e-014 2.8625e-014
lhumerus -55.3134 2.92855 66.6273
lradius 64.0214
lwrist -7.09199
lhand 12.1529 17.1899
lfingers 7.12502
lthumb 37.1653 43.2115
rfemur -3.32672 -8.89707 0.867409
rtibia 56.4228
rfoot -26.9768 -6.78144
rtoes -23.1685
lfemur 2.13999 7.80242 -26.9631
ltibia 44.8818
lfoot -23.2884 0.858505
ltoes -24.7026
1664
root 0.599521 16.5306 1.35895 -15.4829 6.35198 10.4536
lowerback 6.13004 5.85247 10.5061
upperback 9.05558 7.81411 5.46978
thorax 6.8421 4.38164 0.0491965
lowerneck 17.4335 6.63166 5.07776
upperneck 4.84324 9.99497 -15.1215
head -0.360265 5.60865 -5.93385
rclavicle -1.36167e-013 -3.81667e-014
rhumerus -59.3999 -56.7695 -23.8904
rradius 35.4577
rwrist 18.1353
rhand 3.39132 5.93367
rfingers 7.12502
rthumb 28.8344 -21.8584
lclavicle -1.36167e-013 -3.81667e-014
lhumerus -55.4635 2.98869 66.8309
lradius 63.8786
lwrist -7.47907
lhand 12.3545 17.6892
lfingers 7.12502
lthumb 37.356 43.6608
rfemur -3.25854 -8.86845 0.850315
rtibia 56.3982
rfoot -27.0264 -6.89149
rtoes -23.0704
lfemur 2.10671 7.69021 -27.0396
ltibia 44.949
lfoot -23.3009 0.755513
ltoes -24.2638
1665
root 0.603525 16.5276 1.35862 -15.5242 6.5566 10.5525
lowerback 6.03209 5.83273 10.303
upperback 9.13686 7.76918 5.39874
thorax 6.96033 4.3557 0.0995108
lowerneck 17.3421 6.2824 4.99451
upperneck 4.88584 9.51143 -15.205
head -0.388826 5.36284 -5.9302
rclavicle -8.38871e-014 4.77083e-014
rhumerus -59.328 -56.7682 -24.0175
rradius 35.1012
rwrist 18.3336
rhand 3.16143 5.8177
rfingers 7.12502
rthumb 28.6148 -22.0116
lclavicle -8.38871e-014 4.77083e-014
lhumerus -55.5354 3.00117 66.9754
lradius 63.7311
lwrist -7.92674
lhand 12.703 18.0441
lfingers 7.12502
lthumb 37.6853 43.9282
rfemur -3.10906 -8.85122 0.709204
rtibia 56.3723
rfoot -27.1144 -6.99692
rtoes -23.1693
lfemur 2.15084 7.58172 -27.2026
ltibia 45.007
lfoot -23.3399 0.496849
ltoes -22.9324
1666
root 0.604292 16.5268 1.3565 -15.6416 6.66274 10.4272
lowerback 6.06018 5.81889 10.2953
upperback 9.18345 7.75187 5.40398
thorax 6.99245 4.34937 0.109983
lowerneck 17.2941 5.89451 4.92929
upperneck 4.92806 8.97892 -15.2649
head -0.429238 5.09384 -5.92226
rclavicle -1.64991e-014 -4.13472e-014
rhumerus -59.2588 -56.7086 -24.1451
rradius 34.7864
rwrist 18.3729
rhand 2.81345 5.63292
rfingers 7.12502
rthumb 28.2823 -22.252
lclavicle -1.64991e-014 -4.13472e-014
lhumerus -55.6301 3.00347 67.0515
lradius 63.567
lwrist -8.62153
lhand 13.3998 18.3891
lfingers 7.12502
lthumb 38.3433 44.0941
rfemur -2.93074 -8.78328 0.873334
rtibia 56.3345
rfoot -27.2228 -7.24876
rtoes -23.5727
lfemur 2.21743 7.53104 -27.0751
ltibia 45.0683
lfoot -23.3599 0.555724
ltoes -23.2104
1667
root 0.604741 16.5272 1.3548 -15.7028 6.75075 10.2621
lowerback 5.99351 5.79271 10.2993
upperback 9.22538 7.70398 5.43219
thorax 7.06947 4.32799 0.148857
lowerneck 17.212 5.52611 4.79875
upperneck 4.98406 8.46186 -15.3169
head -0.46131 4.82972 -5.89881
rclavicle -1.08437e-013 -2.8625e-014
rhumerus -59.0592 -56.6229 -24.376
rradius 34.533
rwrist 18.4097
rhand 2.49569 5.4754
rfingers 7.12502
rthumb 27.9786 -22.4594
lclavicle -1.08437e-013 -2.8625e-014
lhumerus -55.79 3.01127 67.1697
lradius 63.4708
lwrist -9.19216
lhand 14.0153 18.8069
lfingers 7.12502
lthumb 38.924 44.3487
rfemur -2.81789 -8.7163 1.09654
rtibia 56.2855
rfoot -27.2859 -7.22637
rtoes -22.3612
lfemur 2.20846 7.47282 -26.9059
ltibia 45.1317
lfoot -23.3948 0.579041
ltoes -23.4498
1668
root 0.607513 16.5246 1.35347 -15.7264 6.90523 10.281
lowerback 5.88158 5.76527 10.1029
upperback 9.28034 7.64606 5.43675
thorax 7.15638 4.29056 0.272456
lowerneck 17.2966 5.19073 4.46234
upperneck 4.80518 7.91982 -15.2817
head -0.599372 4.56182 -5.82449
rclavicle 9.93923e-016 -8.26944e-014
rhumerus -58.772 -56.4614 -24.6492
rradius 34.2865
rwrist 18.3989
rhand 2.12288 5.40365
rfingers 7.12502
rthumb 27.6221 -22.5888
lclavicle 9.93923e-016 -8.26944e-014
lhumerus -55.9945 3.09447 67.3242
lradius 63.3949
lwrist -9.72504
lhand 14.5015 19.0715
lfingers 7.12502
lthumb 39.3822 44.481
rfemur -2.70832 -8.69835 1.05524
rtibia 56.2431
rfoot -27.3523 -7.02477
rtoes -21.0399
lfemur 2.18972 7.37644 -26.9706
ltibia 45.2019
lfoot -23.4049 0.500475
ltoes -23.0834
